<svg width="556" height="602" viewBox="0 0 556 602" fill="none" xmlns="http://www.w3.org/2000/svg">
<g filter="url(#filter0_b_304_341)">
<mask id="path-1-inside-1_304_341" fill="white">
<path fill-rule="evenodd" clip-rule="evenodd" d="M278.127 538.993C419.104 538.993 535.583 437.359 553.782 305.583H337.739L407.094 372.786L372.281 406.518L302.92 339.309V434.54H253.687V339.299H302.91L302.78 339.173L337.497 305.534V257.932L337.469 257.959L302.657 224.226L302.689 224.195H253.687V128.954H302.92V223.972L372.158 156.882L406.971 190.614L337.553 257.878H556C549.72 114.429 427.715 0 278.127 0C131.482 0 11.3447 109.971 0.758129 249.446H0V602C78.7356 602 150.983 575.08 207.472 530.22C230.033 535.945 253.713 538.993 278.127 538.993ZM120.462 305.626V257.921H218.752V305.626H218.748L253.52 339.319L184.018 406.664L149.206 372.932L218.667 305.626H120.462ZM149.294 190.468L184.106 156.736L253.608 224.081L218.795 257.813L149.294 190.468Z"/>
</mask>
<path fill-rule="evenodd" clip-rule="evenodd" d="M278.127 538.993C419.104 538.993 535.583 437.359 553.782 305.583H337.739L407.094 372.786L372.281 406.518L302.92 339.309V434.54H253.687V339.299H302.91L302.78 339.173L337.497 305.534V257.932L337.469 257.959L302.657 224.226L302.689 224.195H253.687V128.954H302.92V223.972L372.158 156.882L406.971 190.614L337.553 257.878H556C549.72 114.429 427.715 0 278.127 0C131.482 0 11.3447 109.971 0.758129 249.446H0V602C78.7356 602 150.983 575.08 207.472 530.22C230.033 535.945 253.713 538.993 278.127 538.993ZM120.462 305.626V257.921H218.752V305.626H218.748L253.52 339.319L184.018 406.664L149.206 372.932L218.667 305.626H120.462ZM149.294 190.468L184.106 156.736L253.608 224.081L218.795 257.813L149.294 190.468Z" fill="url(#paint0_radial_304_341)"/>
<path d="M553.782 305.583L554.773 305.72L554.93 304.583H553.782V305.583ZM337.739 305.583V304.583H335.27L337.043 306.301L337.739 305.583ZM407.094 372.786L407.79 373.504L408.531 372.786L407.79 372.068L407.094 372.786ZM372.281 406.518L371.586 407.236L372.281 407.911L372.977 407.236L372.281 406.518ZM302.92 339.309L303.616 338.591L301.92 336.947V339.309H302.92ZM302.92 434.54V435.54H303.92V434.54H302.92ZM253.687 434.54H252.687V435.54H253.687V434.54ZM253.687 339.299V338.299H252.687V339.299H253.687ZM302.91 339.299V340.299H305.379L303.606 338.581L302.91 339.299ZM302.78 339.173L302.084 338.455L301.343 339.173L302.084 339.892L302.78 339.173ZM337.497 305.534L338.193 306.252L338.497 305.957V305.534H337.497ZM337.497 257.932H338.497V255.57L336.801 257.214L337.497 257.932ZM337.469 257.959L336.774 258.677L337.47 259.351L338.165 258.677L337.469 257.959ZM302.657 224.226L301.961 223.508L301.22 224.227L301.961 224.945L302.657 224.226ZM302.689 224.195L303.385 224.913L305.158 223.195H302.689V224.195ZM253.687 224.195H252.687V225.195H253.687V224.195ZM253.687 128.954V127.954H252.687V128.954H253.687ZM302.92 128.954H303.92V127.954H302.92V128.954ZM302.92 223.972H301.92V226.333L303.616 224.69L302.92 223.972ZM372.158 156.882L372.854 156.163L372.158 155.489L371.462 156.163L372.158 156.882ZM406.971 190.614L407.667 191.332L408.408 190.614L407.667 189.896L406.971 190.614ZM337.553 257.878L336.857 257.16L335.084 258.878H337.553V257.878ZM556 257.878V258.878H557.045L556.999 257.834L556 257.878ZM0.758129 249.446V250.446H1.6851L1.75526 249.521L0.758129 249.446ZM0 249.446V248.446H-1V249.446H0ZM0 602H-1V603H0V602ZM207.472 530.22L207.718 529.251L207.238 529.129L206.85 529.437L207.472 530.22ZM120.462 257.921V256.921H119.462V257.921H120.462ZM120.462 305.626H119.462V306.626H120.462V305.626ZM218.752 257.921H219.752V256.921H218.752V257.921ZM218.752 305.626V306.626H219.752V305.626H218.752ZM218.748 305.626V304.626H216.279L218.052 306.345L218.748 305.626ZM253.52 339.319L254.216 340.038L254.957 339.319L254.216 338.601L253.52 339.319ZM184.018 406.664L183.322 407.382L184.018 408.057L184.714 407.382L184.018 406.664ZM149.206 372.932L148.51 372.214L147.769 372.932L148.51 373.65L149.206 372.932ZM218.667 305.626L219.362 306.345L221.136 304.626H218.667V305.626ZM184.106 156.736L184.802 156.018L184.106 155.343L183.41 156.018L184.106 156.736ZM149.294 190.468L148.598 189.75L147.857 190.468L148.598 191.186L149.294 190.468ZM253.608 224.081L254.304 224.799L255.045 224.081L254.304 223.362L253.608 224.081ZM218.795 257.813L218.099 258.531L218.795 259.205L219.491 258.531L218.795 257.813ZM552.791 305.446C534.663 436.71 418.622 537.993 278.127 537.993V539.993C419.586 539.993 536.503 438.007 554.773 305.72L552.791 305.446ZM337.739 306.583H553.782V304.583H337.739V306.583ZM407.79 372.068L338.435 304.865L337.043 306.301L406.398 373.504L407.79 372.068ZM372.977 407.236L407.79 373.504L406.398 372.068L371.586 405.8L372.977 407.236ZM302.224 340.027L371.586 407.236L372.977 405.8L303.616 338.591L302.224 340.027ZM303.92 434.54V339.309H301.92V434.54H303.92ZM253.687 435.54H302.92V433.54H253.687V435.54ZM252.687 339.299V434.54H254.687V339.299H252.687ZM302.91 338.299H253.687V340.299H302.91V338.299ZM302.084 339.892L302.214 340.017L303.606 338.581L303.476 338.455L302.084 339.892ZM336.801 304.815L302.084 338.455L303.476 339.892L338.193 306.252L336.801 304.815ZM336.497 257.932V305.534H338.497V257.932H336.497ZM338.165 258.677L338.193 258.65L336.801 257.214L336.774 257.241L338.165 258.677ZM301.961 224.945L336.774 258.677L338.165 257.241L303.353 223.508L301.961 224.945ZM301.993 223.477L301.961 223.508L303.353 224.944L303.385 224.913L301.993 223.477ZM253.687 225.195H302.689V223.195H253.687V225.195ZM252.687 128.954V224.195H254.687V128.954H252.687ZM302.92 127.954H253.687V129.954H302.92V127.954ZM303.92 223.972V128.954H301.92V223.972H303.92ZM371.462 156.163L302.224 223.253L303.616 224.69L372.854 157.6L371.462 156.163ZM407.667 189.896L372.854 156.163L371.462 157.6L406.275 191.332L407.667 189.896ZM338.249 258.596L407.667 191.332L406.275 189.896L336.857 257.16L338.249 258.596ZM556 256.878H337.553V258.878H556V256.878ZM278.127 1C427.205 1 548.746 115.033 555.001 257.921L556.999 257.834C550.695 113.825 428.224 -1 278.127 -1V1ZM1.75526 249.521C12.3005 110.59 131.982 1 278.127 1V-1C130.982 -1 10.3888 109.351 -0.239002 249.37L1.75526 249.521ZM0 250.446H0.758129V248.446H0V250.446ZM1 602V249.446H-1V602H1ZM206.85 529.437C150.534 574.159 78.5047 601 0 601V603C78.9666 603 151.432 576 208.094 531.003L206.85 529.437ZM278.127 537.993C253.796 537.993 230.2 534.955 207.718 529.251L207.226 531.189C229.867 536.934 253.629 539.993 278.127 539.993V537.993ZM119.462 257.921V305.626H121.462V257.921H119.462ZM218.752 256.921H120.462V258.921H218.752V256.921ZM219.752 305.626V257.921H217.752V305.626H219.752ZM218.748 306.626H218.752V304.626H218.748V306.626ZM254.216 338.601L219.443 304.908L218.052 306.345L252.824 340.038L254.216 338.601ZM184.714 407.382L254.216 340.038L252.824 338.601L183.322 405.946L184.714 407.382ZM148.51 373.65L183.322 407.382L184.714 405.946L149.902 372.214L148.51 373.65ZM217.971 304.908L148.51 372.214L149.902 373.65L219.362 306.345L217.971 304.908ZM120.462 306.626H218.667V304.626H120.462V306.626ZM183.41 156.018L148.598 189.75L149.989 191.186L184.802 157.454L183.41 156.018ZM254.304 223.362L184.802 156.018L183.41 157.454L252.912 224.799L254.304 223.362ZM219.491 258.531L254.304 224.799L252.912 223.362L218.099 257.095L219.491 258.531ZM148.598 191.186L218.099 258.531L219.491 257.095L149.989 189.75L148.598 191.186Z" fill="black" mask="url(#path-1-inside-1_304_341)"/>
</g>
<defs>
<filter id="filter0_b_304_341" x="-4" y="-4" width="564" height="610" filterUnits="userSpaceOnUse" color-interpolation-filters="sRGB">
<feFlood flood-opacity="0" result="BackgroundImageFix"/>
<feGaussianBlur in="BackgroundImageFix" stdDeviation="2"/>
<feComposite in2="SourceAlpha" operator="in" result="effect1_backgroundBlur_304_341"/>
<feBlend mode="normal" in="SourceGraphic" in2="effect1_backgroundBlur_304_341" result="shape"/>
</filter>
<radialGradient id="paint0_radial_304_341" cx="0" cy="0" r="1" gradientUnits="userSpaceOnUse" gradientTransform="translate(278 301) rotate(90) scale(301 278)">
<stop offset="0.015625" stop-color="white"/>
<stop offset="0.307292" stop-color="#F4EFFB" stop-opacity="0.91"/>
<stop offset="1" stop-color="#D77C61"/>
</radialGradient>
</defs>
</svg>
